<mxfile host="Electron" modified="2024-03-21T09:02:00.435Z" agent="Mozilla/5.0 (Windows NT 10.0; Win64; x64) AppleWebKit/537.36 (KHTML, like Gecko) draw.io/24.0.4 Chrome/120.0.6099.109 Electron/28.1.0 Safari/537.36" etag="RpgggQxNVvOzgOFtyYn3" version="24.0.4" type="device">
  <diagram name="Pagina-1" id="cmr7eMvMmpUEYz1AsBs9">
    <mxGraphModel dx="1436" dy="214" grid="0" gridSize="10" guides="1" tooltips="1" connect="1" arrows="1" fold="1" page="0" pageScale="1" pageWidth="827" pageHeight="1169" math="0" shadow="0">
      <root>
        <mxCell id="0" />
        <mxCell id="1" parent="0" />
        <mxCell id="lW9m0xhMspZMOL1YdCBU-17" style="edgeStyle=orthogonalEdgeStyle;rounded=0;orthogonalLoop=1;jettySize=auto;html=1;exitX=0.5;exitY=1;exitDx=0;exitDy=0;entryX=0;entryY=0.5;entryDx=0;entryDy=0;" parent="1" source="lW9m0xhMspZMOL1YdCBU-1" target="lW9m0xhMspZMOL1YdCBU-9" edge="1">
          <mxGeometry relative="1" as="geometry" />
        </mxCell>
        <mxCell id="lW9m0xhMspZMOL1YdCBU-18" style="edgeStyle=orthogonalEdgeStyle;rounded=0;orthogonalLoop=1;jettySize=auto;html=1;exitX=0.5;exitY=1;exitDx=0;exitDy=0;entryX=0;entryY=0.5;entryDx=0;entryDy=0;" parent="1" source="lW9m0xhMspZMOL1YdCBU-1" target="lW9m0xhMspZMOL1YdCBU-10" edge="1">
          <mxGeometry relative="1" as="geometry" />
        </mxCell>
        <mxCell id="lW9m0xhMspZMOL1YdCBU-19" style="edgeStyle=orthogonalEdgeStyle;rounded=0;orthogonalLoop=1;jettySize=auto;html=1;exitX=0.5;exitY=1;exitDx=0;exitDy=0;entryX=0;entryY=0.5;entryDx=0;entryDy=0;" parent="1" source="lW9m0xhMspZMOL1YdCBU-1" target="lW9m0xhMspZMOL1YdCBU-11" edge="1">
          <mxGeometry relative="1" as="geometry" />
        </mxCell>
        <mxCell id="lW9m0xhMspZMOL1YdCBU-44" style="edgeStyle=orthogonalEdgeStyle;rounded=0;orthogonalLoop=1;jettySize=auto;html=1;exitX=1;exitY=0.5;exitDx=0;exitDy=0;entryX=0;entryY=0.5;entryDx=0;entryDy=0;endArrow=doubleBlock;endFill=1;" parent="1" source="lW9m0xhMspZMOL1YdCBU-1" target="lW9m0xhMspZMOL1YdCBU-3" edge="1">
          <mxGeometry relative="1" as="geometry" />
        </mxCell>
        <mxCell id="G-JJUhgaqgSGRzvQVqXF-4" style="edgeStyle=orthogonalEdgeStyle;rounded=0;orthogonalLoop=1;jettySize=auto;html=1;exitX=0.5;exitY=1;exitDx=0;exitDy=0;entryX=0;entryY=0.5;entryDx=0;entryDy=0;" edge="1" parent="1" source="lW9m0xhMspZMOL1YdCBU-1" target="G-JJUhgaqgSGRzvQVqXF-1">
          <mxGeometry relative="1" as="geometry" />
        </mxCell>
        <mxCell id="lW9m0xhMspZMOL1YdCBU-1" value="UTENTE" style="rounded=0;whiteSpace=wrap;html=1;" parent="1" vertex="1">
          <mxGeometry x="-161" y="568" width="120" height="60" as="geometry" />
        </mxCell>
        <mxCell id="lW9m0xhMspZMOL1YdCBU-30" style="edgeStyle=orthogonalEdgeStyle;rounded=0;orthogonalLoop=1;jettySize=auto;html=1;exitX=0.5;exitY=1;exitDx=0;exitDy=0;entryX=0;entryY=0.5;entryDx=0;entryDy=0;" parent="1" source="lW9m0xhMspZMOL1YdCBU-2" target="lW9m0xhMspZMOL1YdCBU-21" edge="1">
          <mxGeometry relative="1" as="geometry" />
        </mxCell>
        <mxCell id="lW9m0xhMspZMOL1YdCBU-31" style="edgeStyle=orthogonalEdgeStyle;rounded=0;orthogonalLoop=1;jettySize=auto;html=1;exitX=0.5;exitY=1;exitDx=0;exitDy=0;entryX=0;entryY=0.5;entryDx=0;entryDy=0;" parent="1" source="lW9m0xhMspZMOL1YdCBU-2" target="lW9m0xhMspZMOL1YdCBU-22" edge="1">
          <mxGeometry relative="1" as="geometry" />
        </mxCell>
        <mxCell id="lW9m0xhMspZMOL1YdCBU-32" style="edgeStyle=orthogonalEdgeStyle;rounded=0;orthogonalLoop=1;jettySize=auto;html=1;exitX=0.5;exitY=1;exitDx=0;exitDy=0;entryX=0;entryY=0.5;entryDx=0;entryDy=0;" parent="1" source="lW9m0xhMspZMOL1YdCBU-2" target="lW9m0xhMspZMOL1YdCBU-23" edge="1">
          <mxGeometry relative="1" as="geometry" />
        </mxCell>
        <mxCell id="G-JJUhgaqgSGRzvQVqXF-15" style="edgeStyle=orthogonalEdgeStyle;rounded=0;orthogonalLoop=1;jettySize=auto;html=1;exitX=0.5;exitY=1;exitDx=0;exitDy=0;entryX=0;entryY=0.5;entryDx=0;entryDy=0;" edge="1" parent="1" source="lW9m0xhMspZMOL1YdCBU-2" target="G-JJUhgaqgSGRzvQVqXF-13">
          <mxGeometry relative="1" as="geometry" />
        </mxCell>
        <mxCell id="lW9m0xhMspZMOL1YdCBU-2" value="LIBRO" style="rounded=0;whiteSpace=wrap;html=1;" parent="1" vertex="1">
          <mxGeometry x="511" y="562" width="120" height="60" as="geometry" />
        </mxCell>
        <mxCell id="lW9m0xhMspZMOL1YdCBU-42" style="edgeStyle=orthogonalEdgeStyle;rounded=0;orthogonalLoop=1;jettySize=auto;html=1;exitX=0.5;exitY=1;exitDx=0;exitDy=0;entryX=0;entryY=0.5;entryDx=0;entryDy=0;" parent="1" source="lW9m0xhMspZMOL1YdCBU-3" target="lW9m0xhMspZMOL1YdCBU-34" edge="1">
          <mxGeometry relative="1" as="geometry" />
        </mxCell>
        <mxCell id="lW9m0xhMspZMOL1YdCBU-43" style="edgeStyle=orthogonalEdgeStyle;rounded=0;orthogonalLoop=1;jettySize=auto;html=1;exitX=0.5;exitY=1;exitDx=0;exitDy=0;entryX=0;entryY=0.5;entryDx=0;entryDy=0;" parent="1" source="lW9m0xhMspZMOL1YdCBU-3" target="lW9m0xhMspZMOL1YdCBU-35" edge="1">
          <mxGeometry relative="1" as="geometry" />
        </mxCell>
        <mxCell id="G-JJUhgaqgSGRzvQVqXF-12" style="edgeStyle=orthogonalEdgeStyle;rounded=0;orthogonalLoop=1;jettySize=auto;html=1;exitX=0.5;exitY=1;exitDx=0;exitDy=0;entryX=0;entryY=0.5;entryDx=0;entryDy=0;" edge="1" parent="1" source="lW9m0xhMspZMOL1YdCBU-3" target="G-JJUhgaqgSGRzvQVqXF-10">
          <mxGeometry relative="1" as="geometry" />
        </mxCell>
        <mxCell id="lW9m0xhMspZMOL1YdCBU-3" value="PRESTITO" style="rounded=0;whiteSpace=wrap;html=1;" parent="1" vertex="1">
          <mxGeometry x="204" y="568" width="120" height="60" as="geometry" />
        </mxCell>
        <mxCell id="lW9m0xhMspZMOL1YdCBU-9" value="" style="ellipse;whiteSpace=wrap;html=1;aspect=fixed;" parent="1" vertex="1">
          <mxGeometry x="-74" y="678" width="26" height="26" as="geometry" />
        </mxCell>
        <mxCell id="lW9m0xhMspZMOL1YdCBU-10" value="" style="ellipse;whiteSpace=wrap;html=1;aspect=fixed;" parent="1" vertex="1">
          <mxGeometry x="-74" y="719" width="26" height="26" as="geometry" />
        </mxCell>
        <mxCell id="lW9m0xhMspZMOL1YdCBU-11" value="" style="ellipse;whiteSpace=wrap;html=1;aspect=fixed;" parent="1" vertex="1">
          <mxGeometry x="-74" y="760" width="26" height="26" as="geometry" />
        </mxCell>
        <mxCell id="lW9m0xhMspZMOL1YdCBU-13" value="nome" style="text;html=1;align=center;verticalAlign=middle;resizable=0;points=[];autosize=1;strokeColor=none;fillColor=none;" parent="1" vertex="1">
          <mxGeometry x="-48" y="673" width="48" height="26" as="geometry" />
        </mxCell>
        <mxCell id="lW9m0xhMspZMOL1YdCBU-14" value="cognome" style="text;html=1;align=center;verticalAlign=middle;resizable=0;points=[];autosize=1;strokeColor=none;fillColor=none;" parent="1" vertex="1">
          <mxGeometry x="-51" y="719" width="67" height="26" as="geometry" />
        </mxCell>
        <mxCell id="lW9m0xhMspZMOL1YdCBU-15" value="email" style="text;html=1;align=center;verticalAlign=middle;resizable=0;points=[];autosize=1;strokeColor=none;fillColor=none;" parent="1" vertex="1">
          <mxGeometry x="-45" y="760" width="47" height="26" as="geometry" />
        </mxCell>
        <mxCell id="lW9m0xhMspZMOL1YdCBU-21" value="" style="ellipse;whiteSpace=wrap;html=1;aspect=fixed;" parent="1" vertex="1">
          <mxGeometry x="598" y="659" width="26" height="26" as="geometry" />
        </mxCell>
        <mxCell id="lW9m0xhMspZMOL1YdCBU-22" value="" style="ellipse;whiteSpace=wrap;html=1;aspect=fixed;" parent="1" vertex="1">
          <mxGeometry x="598" y="700" width="26" height="26" as="geometry" />
        </mxCell>
        <mxCell id="lW9m0xhMspZMOL1YdCBU-23" value="" style="ellipse;whiteSpace=wrap;html=1;aspect=fixed;" parent="1" vertex="1">
          <mxGeometry x="598" y="741" width="26" height="26" as="geometry" />
        </mxCell>
        <mxCell id="lW9m0xhMspZMOL1YdCBU-24" value="titolo" style="text;html=1;align=center;verticalAlign=middle;resizable=0;points=[];autosize=1;strokeColor=none;fillColor=none;" parent="1" vertex="1">
          <mxGeometry x="627" y="654" width="43" height="26" as="geometry" />
        </mxCell>
        <mxCell id="lW9m0xhMspZMOL1YdCBU-25" value="anno pubbl" style="text;html=1;align=center;verticalAlign=middle;resizable=0;points=[];autosize=1;strokeColor=none;fillColor=none;" parent="1" vertex="1">
          <mxGeometry x="616" y="700" width="77" height="26" as="geometry" />
        </mxCell>
        <mxCell id="lW9m0xhMspZMOL1YdCBU-28" value="disponibilitÃ " style="text;html=1;align=center;verticalAlign=middle;resizable=0;points=[];autosize=1;strokeColor=none;fillColor=none;" parent="1" vertex="1">
          <mxGeometry x="622" y="741" width="81" height="26" as="geometry" />
        </mxCell>
        <mxCell id="lW9m0xhMspZMOL1YdCBU-34" value="" style="ellipse;whiteSpace=wrap;html=1;aspect=fixed;" parent="1" vertex="1">
          <mxGeometry x="286" y="657" width="26" height="26" as="geometry" />
        </mxCell>
        <mxCell id="lW9m0xhMspZMOL1YdCBU-35" value="" style="ellipse;whiteSpace=wrap;html=1;aspect=fixed;" parent="1" vertex="1">
          <mxGeometry x="286" y="698" width="26" height="26" as="geometry" />
        </mxCell>
        <mxCell id="lW9m0xhMspZMOL1YdCBU-37" value="data inizio prestito" style="text;html=1;align=center;verticalAlign=middle;resizable=0;points=[];autosize=1;strokeColor=none;fillColor=none;" parent="1" vertex="1">
          <mxGeometry x="315" y="654" width="115" height="26" as="geometry" />
        </mxCell>
        <mxCell id="lW9m0xhMspZMOL1YdCBU-38" value="data fine prestito" style="text;html=1;align=center;verticalAlign=middle;resizable=0;points=[];autosize=1;strokeColor=none;fillColor=none;" parent="1" vertex="1">
          <mxGeometry x="307" y="698" width="107" height="26" as="geometry" />
        </mxCell>
        <mxCell id="lW9m0xhMspZMOL1YdCBU-45" style="edgeStyle=orthogonalEdgeStyle;rounded=0;orthogonalLoop=1;jettySize=auto;html=1;exitX=0;exitY=0.5;exitDx=0;exitDy=0;entryX=1.002;entryY=0.4;entryDx=0;entryDy=0;entryPerimeter=0;endArrow=doubleBlock;endFill=1;" parent="1" source="lW9m0xhMspZMOL1YdCBU-2" target="lW9m0xhMspZMOL1YdCBU-3" edge="1">
          <mxGeometry relative="1" as="geometry" />
        </mxCell>
        <mxCell id="8ZCYHE19JODF69cLhNxo-1" value="" style="endArrow=none;html=1;rounded=0;" parent="1" edge="1">
          <mxGeometry width="50" height="50" relative="1" as="geometry">
            <mxPoint x="487" y="619.5" as="sourcePoint" />
            <mxPoint x="487" y="564.5" as="targetPoint" />
          </mxGeometry>
        </mxCell>
        <mxCell id="G-JJUhgaqgSGRzvQVqXF-1" value="" style="ellipse;whiteSpace=wrap;html=1;aspect=fixed;fillColor=#000000;" vertex="1" parent="1">
          <mxGeometry x="-71" y="649" width="26" height="26" as="geometry" />
        </mxCell>
        <mxCell id="G-JJUhgaqgSGRzvQVqXF-2" value="Codice Utente" style="text;html=1;align=center;verticalAlign=middle;resizable=0;points=[];autosize=1;strokeColor=none;fillColor=none;" vertex="1" parent="1">
          <mxGeometry x="-38" y="649" width="94" height="26" as="geometry" />
        </mxCell>
        <mxCell id="G-JJUhgaqgSGRzvQVqXF-3" value="" style="endArrow=none;html=1;rounded=0;" edge="1" parent="1">
          <mxGeometry width="50" height="50" relative="1" as="geometry">
            <mxPoint x="-89" y="798" as="sourcePoint" />
            <mxPoint x="-89" y="753" as="targetPoint" />
          </mxGeometry>
        </mxCell>
        <mxCell id="G-JJUhgaqgSGRzvQVqXF-8" value="" style="endArrow=none;html=1;rounded=0;" edge="1" parent="1">
          <mxGeometry width="50" height="50" relative="1" as="geometry">
            <mxPoint x="272" y="736.5" as="sourcePoint" />
            <mxPoint x="274" y="685.5" as="targetPoint" />
          </mxGeometry>
        </mxCell>
        <mxCell id="G-JJUhgaqgSGRzvQVqXF-10" value="" style="ellipse;whiteSpace=wrap;html=1;aspect=fixed;fillColor=#000000;" vertex="1" parent="1">
          <mxGeometry x="286" y="741" width="26" height="26" as="geometry" />
        </mxCell>
        <mxCell id="G-JJUhgaqgSGRzvQVqXF-11" value="Codice Pres" style="text;html=1;align=center;verticalAlign=middle;resizable=0;points=[];autosize=1;strokeColor=none;fillColor=none;" vertex="1" parent="1">
          <mxGeometry x="325" y="741" width="83" height="26" as="geometry" />
        </mxCell>
        <mxCell id="G-JJUhgaqgSGRzvQVqXF-13" value="" style="ellipse;whiteSpace=wrap;html=1;aspect=fixed;fillColor=#000000;" vertex="1" parent="1">
          <mxGeometry x="598" y="776" width="26" height="26" as="geometry" />
        </mxCell>
        <mxCell id="G-JJUhgaqgSGRzvQVqXF-14" value="ISBN" style="text;html=1;align=center;verticalAlign=middle;resizable=0;points=[];autosize=1;strokeColor=none;fillColor=none;" vertex="1" parent="1">
          <mxGeometry x="634" y="778" width="46" height="26" as="geometry" />
        </mxCell>
        <mxCell id="G-JJUhgaqgSGRzvQVqXF-16" value="" style="endArrow=none;html=1;rounded=0;" edge="1" parent="1">
          <mxGeometry width="50" height="50" relative="1" as="geometry">
            <mxPoint x="-13" y="623" as="sourcePoint" />
            <mxPoint x="-13" y="568" as="targetPoint" />
          </mxGeometry>
        </mxCell>
      </root>
    </mxGraphModel>
  </diagram>
</mxfile>
